<svg width="25" height="25" viewBox="0 0 25 25" fill="none" xmlns="http://www.w3.org/2000/svg">
<path d="M24.3113 6.93509L22.0603 9.18615C21.8307 9.41565 21.4596 9.41565 21.2301 9.18615L15.81 3.76602C15.5805 3.53652 15.5805 3.16541 15.81 2.93591L18.0611 0.684841C18.9742 -0.22828 20.4586 -0.22828 21.3766 0.684841L24.3113 3.61953C25.2293 4.53265 25.2293 6.01708 24.3113 6.93509ZM13.8763 4.86958L1.05357 17.6923L0.018375 23.6252C-0.123232 24.426 0.575037 25.1194 1.37585 24.9827L7.3087 23.9426L20.1315 11.1198C20.361 10.8903 20.361 10.5192 20.1315 10.2897L14.7113 4.86958C14.4769 4.64007 14.1058 4.64007 13.8763 4.86958ZM6.05865 16.5937C5.79008 16.3251 5.79008 15.8954 6.05865 15.6268L13.5785 8.10701C13.847 7.83844 14.2767 7.83844 14.5453 8.10701C14.8139 8.37557 14.8139 8.80528 14.5453 9.07384L7.02548 16.5937C6.75692 16.8622 6.32721 16.8622 6.05865 16.5937ZM4.29589 20.7003H6.63973V22.4728L3.49019 23.0246L1.97158 21.506L2.52336 18.3564H4.29589V20.7003Z" fill="black"/>
</svg>
