<svg width="38" height="24" viewBox="0 0 38 24" fill="none" xmlns="http://www.w3.org/2000/svg">
<path d="M33.6154 3.13043H28.5512L26.0611 0.464348C25.9276 0.321589 25.747 0.204526 25.5351 0.123529C25.3232 0.0425324 25.0865 0.00010305 24.8462 0H13.1538C12.9135 0.00010305 12.6768 0.0425324 12.4649 0.123529C12.253 0.204526 12.0723 0.321589 11.9389 0.464348L9.44702 3.13043H4.38462C3.22174 3.13043 2.1065 3.46025 1.28422 4.04732C0.461949 4.63439 0 5.43063 0 6.26087V20.8696C0 21.6998 0.461949 22.496 1.28422 23.0831C2.1065 23.6702 3.22174 24 4.38462 24H33.6154C34.7783 24 35.8935 23.6702 36.7158 23.0831C37.5381 22.496 38 21.6998 38 20.8696V6.26087C38 5.43063 37.5381 4.63439 36.7158 4.04732C35.8935 3.46025 34.7783 3.13043 33.6154 3.13043ZM35.0769 20.8696C35.0769 21.1463 34.9229 21.4117 34.6488 21.6074C34.3748 21.8031 34.003 21.913 33.6154 21.913H4.38462C3.99699 21.913 3.62524 21.8031 3.35115 21.6074C3.07706 21.4117 2.92308 21.1463 2.92308 20.8696V6.26087C2.92308 5.98412 3.07706 5.71871 3.35115 5.52302C3.62524 5.32733 3.99699 5.21739 4.38462 5.21739H10.2308C10.4715 5.2175 10.7084 5.17518 10.9207 5.09417C11.133 5.01316 11.3139 4.89599 11.4475 4.75304L13.9358 2.08696H24.0624L26.5525 4.75304C26.6861 4.89599 26.867 5.01316 27.0793 5.09417C27.2916 5.17518 27.5285 5.2175 27.7692 5.21739H33.6154C34.003 5.21739 34.3748 5.32733 34.6488 5.52302C34.9229 5.71871 35.0769 5.98412 35.0769 6.26087V20.8696ZM19 7.30435C17.4101 7.30435 15.856 7.64094 14.5341 8.27157C13.2122 8.90219 12.1818 9.79852 11.5734 10.8472C10.965 11.8959 10.8058 13.0498 11.116 14.1631C11.4262 15.2764 12.1917 16.299 13.3159 17.1017C14.4401 17.9043 15.8725 18.4509 17.4318 18.6723C18.9911 18.8938 20.6073 18.7801 22.0762 18.3457C23.545 17.9114 24.8005 17.1758 25.6837 16.232C26.567 15.2882 27.0385 14.1786 27.0385 13.0435C27.036 11.5219 26.1884 10.0631 24.6814 8.98721C23.1744 7.91128 21.1312 7.30607 19 7.30435ZM19 16.6957C17.9883 16.6957 16.9993 16.4815 16.158 16.0801C15.3168 15.6788 14.6612 15.1085 14.274 14.4411C13.8868 13.7738 13.7855 13.0394 13.9829 12.331C14.1803 11.6225 14.6675 10.9718 15.3829 10.461C16.0983 9.95024 17.0098 9.6024 18.002 9.46148C18.9943 9.32056 20.0229 9.39288 20.9576 9.66931C21.8923 9.94573 22.6912 10.4138 23.2533 11.0144C23.8154 11.615 24.1154 12.3211 24.1154 13.0435C24.1154 14.0121 23.5764 14.941 22.6171 15.626C21.6578 16.3109 20.3567 16.6957 19 16.6957Z" fill="black"/>
</svg>
